<svg id="Layer_1" xmlns="http://www.w3.org/2000/svg" viewBox="0 0 300 92"><style>.st0{fill:#000;background-color:red;}</style><path class="st0" d="M115.7 54.3h-2.5l-2.1-5.5h-8.3l-2 5.5h-2.6l7.5-19.6h2.4l7.6 19.6zm-5.4-7.6l-3.1-8.4c-.1-.3-.2-.7-.3-1.3h-.1c-.1.6-.2 1-.3 1.3l-3 8.4h6.8zM117.7 53.5v-2.7c.3.3.7.5 1.1.7s.9.4 1.4.6c.5.2 1 .3 1.4.3s.9.1 1.3.1c1.4 0 2.5-.3 3.2-.8s1-1.3 1-2.3c0-.5-.1-1-.3-1.4-.2-.4-.6-.8-1-1.1s-.9-.6-1.5-.9l-1.8-.9c-.7-.3-1.3-.7-1.9-1.1-.6-.4-1.1-.7-1.5-1.2-.4-.4-.8-.9-1-1.5-.3-.5-.4-1.2-.4-1.9 0-.9.2-1.7.6-2.3.4-.7.9-1.2 1.5-1.6.6-.4 1.4-.7 2.2-1 .8-.2 1.6-.3 2.5-.3 1.9 0 3.3.2 4.2.7v2.6c-1.2-.8-2.6-1.2-4.5-1.2-.5 0-1 .1-1.5.2s-.9.3-1.3.5-.7.5-1 .9c-.2.4-.4.8-.4 1.4 0 .5.1.9.3 1.3.2.4.5.7.8 1s.8.6 1.3.9c.5.3 1.1.6 1.8.9.7.3 1.4.7 2 1.1.6.4 1.2.8 1.7 1.3s.8 1 1.1 1.5.4 1.2.4 1.9c0 1-.2 1.8-.6 2.5s-.9 1.2-1.5 1.6c-.6.4-1.4.7-2.2.9-.8.2-1.7.3-2.7.3-.3 0-.7 0-1.1-.1s-.9-.1-1.4-.2-.9-.2-1.3-.4-.8-.2-.9-.3zM135.8 46.8v7.4h-2.3V34.6h5.4c2.1 0 3.7.5 4.9 1.5s1.7 2.5 1.7 4.3-.6 3.4-1.9 4.6-3 1.8-5.2 1.8h-2.6zm0-10.1v8h2.4c1.6 0 2.8-.4 3.6-1.1.8-.7 1.3-1.7 1.3-3.1 0-2.6-1.5-3.9-4.6-3.9l-2.7.1zM149.5 54.6c-.4 0-.8-.2-1.1-.5s-.4-.7-.4-1.1.1-.8.4-1.1.7-.5 1.1-.5.8.2 1.1.5.5.7.5 1.1-.2.8-.5 1.1c-.2.3-.6.5-1.1.5zM171 54.3h-2.8L158 38.6c-.3-.4-.5-.8-.6-1.2h-.1c.1.4.1 1.3.1 2.7v14.2h-2.3V34.6h3L168 50c.4.6.7 1.1.8 1.3h.1c-.1-.6-.1-1.5-.1-2.9V34.6h2.3l-.1 19.7zM186.5 54.3h-10.4V34.6h10v2.1h-7.7v6.5h7.1v2.1h-7.1v6.9h8.1v2.1zM201.8 36.7h-5.7v17.5h-2.3V36.7h-5.6v-2.1h13.6v2.1z"/></svg>